<?xml version="1.0" encoding="UTF-8"?>
<svg id="Layer_1" data-name="Layer 1" xmlns="http://www.w3.org/2000/svg" viewBox="0 0 292.98 107.59">
  <defs>
    <style>
      .cls-1 {
        fill: #231f20;
      }

      .cls-2 {
        fill: #fec125;
      }
    </style>
  </defs>
  <g>
    <path class="cls-1" d="M35.3,57.48v-22.55h-6.2v28.02h19.38v-5.47h-13.18Z"/>
    <path class="cls-1" d="M60.23,41.08c-6.52,0-11.7,4.77-11.7,11.29s5.12,11.19,11.61,11.19,11.69-4.78,11.69-11.27-5.13-11.21-11.61-11.21ZM60.19,58.12c-3.19,0-5.6-2.44-5.6-5.8s2.42-5.79,5.6-5.79,5.6,2.44,5.6,5.79-2.49,5.8-5.6,5.8Z"/>
    <path class="cls-1" d="M84.26,58.12c-3.03,0-5.37-2.44-5.37-5.8s2.34-5.79,5.37-5.79c2.4,0,4.27,1.29,5.09,3.29l5.71-1.86c-1.59-4.14-5.56-6.88-10.74-6.88-6.52,0-11.61,4.73-11.61,11.24s4.99,11.23,11.46,11.23c5.24,0,9.25-2.72,10.88-6.88l-5.71-1.87c-.83,2.02-2.7,3.31-5.09,3.31Z"/>
    <path class="cls-1" d="M109.86,52l8.89-10.31h-7.13l-8.32,10.21v-19.59l-6.16.55v30.1h6.16v-10.49l8.26,10.49h7.3l-9-10.95Z"/>
  </g>
  <g>
    <path class="cls-1" d="M148.6,53.45c0,.97-.5,1.83-1.25,2.34v4.68c0,.89-.72,1.61-1.61,1.61h0c-.89,0-1.61-.72-1.61-1.61v-4.67c-.75-.51-1.25-1.38-1.25-2.36,0-1.57,1.28-2.86,2.86-2.86s2.86,1.28,2.86,2.86Z"/>
    <path class="cls-2" d="M160.2,63.14h-6.21l-6.42-17.28c-.54-1.46-2.6-1.48-3.18-.03l-6.88,17.37h-6.21l9.08-22.93c.92-2.32,3.16-3.84,5.65-3.84h0c2.54,0,4.81,1.58,5.7,3.96l8.46,22.76Z"/>
  </g>
  <g>
    <path class="cls-1" d="M186.97,41.46c-3.01,0-5.56,1.25-7.28,3.42l-.6-2.86h-5.24v30.22l6.16-.55v-10.87c1.7,1.93,4.09,3.01,6.9,3.01,5.67,0,10.42-4.39,10.42-11.19s-4.58-11.18-10.36-11.18ZM185.7,58.44c-3.14,0-5.68-2.44-5.68-5.8s2.55-5.79,5.68-5.79,5.52,2.42,5.52,5.79-2.44,5.8-5.52,5.8Z"/>
    <path class="cls-1" d="M209.88,41.4c-6.51,0-11.69,4.77-11.69,11.29s5.11,11.19,11.61,11.19,11.69-4.78,11.69-11.27-5.14-11.21-11.61-11.21ZM209.84,58.44c-3.19,0-5.6-2.44-5.6-5.8s2.42-5.79,5.6-5.79,5.6,2.44,5.6,5.79-2.49,5.8-5.6,5.8Z"/>
    <path class="cls-1" d="M222.73,42.02v21.27h6.16v-21.27h-6.16ZM225.8,32.19c-2.21,0-3.67,1.42-3.67,3.5s1.47,3.52,3.67,3.52,3.65-1.42,3.65-3.52-1.47-3.5-3.65-3.5Z"/>
    <path class="cls-1" d="M242.7,41.46c-2.82,0-5.22,1.19-6.73,3.08l-.59-2.52h-5.24v21.27h6.16v-11.82c0-2.89,1.7-4.48,4.08-4.48s3.86,1.4,3.86,4.18v12.12h6.14v-13.73c0-4.82-3.23-8.09-7.67-8.09Z"/>
    <path class="cls-1" d="M266.42,58.46c-.68.19-1.57.32-2.55.32-2.31,0-3.03-1.19-3.03-3.67v-7.81h5.68v-5.05h-5.68v-5.9h-3.7l-2.35,5.9h-3.91v5.05h3.8v8.93c0,4.86,2.8,7.73,7.91,7.73,1.53,0,3.1-.25,4.57-.62l-.75-4.88Z"/>
  </g>
  <g>
    <path class="cls-2" d="M187.92,69.13c1.81,0,3.1,1.24,3.1,2.89s-1.3,2.9-3.11,2.9h-2.07v-5.79h2.08ZM187.91,73.8c1.05,0,1.78-.75,1.78-1.78s-.73-1.77-1.77-1.77h-.79v3.55h.79Z"/>
    <path class="cls-2" d="M195.14,74.92l-1.03-1.84h-1.01v1.84h-1.28v-5.79h2.58c1.22,0,2.13.81,2.13,1.98,0,.84-.48,1.49-1.19,1.8l1.22,2.02h-1.41ZM193.09,70.2v1.83h1.18c.59,0,.96-.37.96-.92s-.37-.91-.96-.91h-1.18Z"/>
    <path class="cls-2" d="M197,72.02c0-1.71,1.35-3.02,3.1-3.02s3.08,1.3,3.08,3.02-1.34,3.02-3.1,3.02-3.09-1.31-3.09-3.02ZM201.86,72.02c0-1.01-.77-1.79-1.76-1.79s-1.77.79-1.77,1.79.77,1.8,1.77,1.8,1.76-.79,1.76-1.8Z"/>
    <path class="cls-2" d="M206.55,69.13c1.22,0,2.13.81,2.13,1.98s-.91,1.98-2.13,1.98h-1.3v1.84h-1.28v-5.79h2.58ZM206.45,72.02c.58,0,.94-.37.94-.91s-.36-.9-.94-.9h-1.19v1.81h1.19Z"/>
    <path class="cls-2" d="M210.98,74.92v-5.79h1.28v4.66h2.73v1.13h-4.01Z"/>
    <path class="cls-2" d="M215.32,72.02c0-1.71,1.35-3.02,3.1-3.02s3.08,1.3,3.08,3.02-1.34,3.02-3.1,3.02-3.09-1.31-3.09-3.02ZM220.18,72.02c0-1.01-.77-1.79-1.76-1.79s-1.77.79-1.77,1.79.77,1.8,1.77,1.8,1.76-.79,1.76-1.8Z"/>
    <path class="cls-2" d="M222.03,72.02c0-1.7,1.33-3.02,3.11-3.02,1.3,0,2.37.71,2.81,1.8l-1.21.42c-.27-.63-.87-1.04-1.6-1.04-1.01,0-1.78.79-1.78,1.83s.76,1.84,1.77,1.84c.73,0,1.34-.41,1.61-1.05l1.21.42c-.46,1.09-1.54,1.81-2.84,1.81-1.75,0-3.08-1.32-3.08-3.02Z"/>
    <path class="cls-2" d="M233.77,74.92h-1.54l-2.25-2.85v2.85h-1.28v-5.79h1.28v2.77l2.2-2.77h1.5l-2.31,2.83,2.4,2.97Z"/>
    <path class="cls-2" d="M239.76,74.92l-.29-.94h-2.4l-.3.94h-1.38l2.04-5.79h1.71l2.04,5.79h-1.41ZM237.43,72.87h1.69l-.83-2.65h-.03l-.84,2.65Z"/>
    <path class="cls-2" d="M241.76,74.92v-5.79h1.26l2.42,3.67h.03c-.03-.49-.03-.9-.03-1.38v-2.29h1.25v5.79h-1.26l-2.42-3.65h-.03c.04.49.04.9.04,1.38v2.27h-1.26Z"/>
    <path class="cls-2" d="M249.82,69.13c1.81,0,3.1,1.24,3.1,2.89s-1.3,2.9-3.11,2.9h-2.07v-5.79h2.08ZM249.8,73.8c1.05,0,1.78-.75,1.78-1.78s-.73-1.77-1.77-1.77h-.79v3.55h.79Z"/>
    <path class="cls-2" d="M257.95,71.68h3.13v3.24h-.71l-.18-.97c-.41.66-1.19,1.09-2.16,1.09-1.67,0-2.95-1.3-2.95-3.02s1.34-3.02,3.12-3.02c1.29,0,2.3.65,2.77,1.66l-1.23.43c-.28-.57-.86-.94-1.56-.94-1.06,0-1.78.83-1.78,1.87s.74,1.92,1.78,1.92c.87,0,1.51-.5,1.73-1.26h-1.95v-1.02Z"/>
    <path class="cls-2" d="M261.83,72.02c0-1.71,1.35-3.02,3.1-3.02s3.08,1.3,3.08,3.02-1.34,3.02-3.1,3.02-3.09-1.31-3.09-3.02ZM266.69,72.02c0-1.01-.77-1.79-1.76-1.79s-1.77.79-1.77,1.79.77,1.8,1.77,1.8,1.76-.79,1.76-1.8Z"/>
  </g>
  <path class="cls-2" d="M170.44,27.71h-48.9v.07h-.01v45.51h6.08v-.04h42.83v-39.46h0v-6.08ZM164.36,67.17h-36.75v-33.38h36.75v33.38Z"/>
</svg>