<?xml version="1.0" encoding="UTF-8"?>
<svg id="Layer_1" data-name="Layer 1" xmlns="http://www.w3.org/2000/svg" viewBox="0 0 292.98 298.57">
  <defs>
    <style>
      .cls-1 {
        letter-spacing: .04em;
      }

      .cls-2 {
        letter-spacing: .04em;
      }

      .cls-3 {
        font-size: 34.64px;
      }

      .cls-3, .cls-4 {
        fill: #fff;
        font-family: GarantPro-Bold, 'Garant Pro';
        font-weight: 700;
      }

      .cls-4 {
        font-size: 32px;
      }

      .cls-5 {
        letter-spacing: 0em;
      }

      .cls-6 {
        fill: #010101;
      }

      .cls-7 {
        letter-spacing: .06em;
      }

      .cls-8 {
        fill: #ffc225;
      }
    </style>
  </defs>
  <rect class="cls-6" x="-.02" y="-3.65" width="295.66" height="303.32"/>
  <text class="cls-4" transform="translate(94.55 92.83)"><tspan class="cls-2" x="0" y="0">L</tspan><tspan class="cls-7" x="18.67" y="0">OCK </tspan></text>
  <text class="cls-3" transform="translate(91.45 204.74)"><tspan class="cls-1" x="0" y="0">POIN</tspan><tspan class="cls-5" x="86" y="0">T</tspan></text>
  <g>
    <g>
      <path class="cls-6" d="M150.79,145.22c0,2.47-1.26,4.65-3.17,5.95v11.89c0,2.25-1.83,4.08-4.08,4.08h0c-2.25,0-4.08-1.83-4.08-4.08v-11.85c-1.91-1.3-3.17-3.52-3.17-5.99,0-3.99,3.26-7.25,7.25-7.25s7.25,3.26,7.25,7.25Z"/>
      <path class="cls-8" d="M180.22,169.84h-15.76l-16.31-43.89c-1.38-3.71-6.61-3.77-8.07-.09l-17.47,44.1h-15.76l23.05-58.22c2.33-5.89,8.02-9.76,14.36-9.76h0c6.45,0,12.23,4.01,14.47,10.06l21.48,57.79Z"/>
    </g>
    <path class="cls-8" d="M241.38,45.5H48.54v.27h-.04v179.46h23.96v-.16h168.9V69.46h.03v-23.96ZM226.53,209.42H63.32V61.16h163.21v148.25Z"/>
  </g>
  <g>
    <path class="cls-8" d="M69.42,235.55c3.56,0,6.1,2.43,6.1,5.68s-2.55,5.7-6.11,5.7h-4.07v-11.38h4.09ZM69.4,244.72c2.06,0,3.5-1.47,3.5-3.49s-1.43-3.48-3.48-3.48h-1.56v6.97h1.54Z"/>
    <path class="cls-8" d="M83.6,246.93l-2.03-3.61h-1.98v3.61h-2.52v-11.38h5.06c2.4,0,4.19,1.59,4.19,3.88,0,1.65-.94,2.93-2.35,3.54l2.39,3.97h-2.77ZM79.58,237.66v3.6h2.31c1.16,0,1.89-.72,1.89-1.8s-.73-1.79-1.89-1.79h-2.31Z"/>
    <path class="cls-8" d="M87.26,241.23c0-3.36,2.65-5.92,6.1-5.92s6.05,2.56,6.05,5.92-2.63,5.94-6.09,5.94-6.06-2.58-6.06-5.94ZM96.8,241.23c0-1.97-1.52-3.52-3.47-3.52s-3.48,1.54-3.48,3.52,1.52,3.54,3.48,3.54,3.47-1.54,3.47-3.54Z"/>
    <path class="cls-8" d="M106.01,235.55c2.4,0,4.19,1.59,4.19,3.88s-1.79,3.9-4.19,3.9h-2.54v3.61h-2.52v-11.38h5.06ZM105.81,241.22c1.14,0,1.85-.73,1.85-1.78s-.72-1.78-1.85-1.78h-2.35v3.56h2.35Z"/>
    <path class="cls-8" d="M114.73,246.93v-11.38h2.52v9.16h5.36v2.23h-7.87Z"/>
    <path class="cls-8" d="M123.25,241.23c0-3.36,2.65-5.92,6.1-5.92s6.05,2.56,6.05,5.92-2.63,5.94-6.09,5.94-6.06-2.58-6.06-5.94ZM132.8,241.23c0-1.97-1.52-3.52-3.47-3.52s-3.48,1.54-3.48,3.52,1.52,3.54,3.48,3.54,3.47-1.54,3.47-3.54Z"/>
    <path class="cls-8" d="M136.44,241.23c0-3.35,2.61-5.92,6.11-5.92,2.56,0,4.67,1.4,5.53,3.53l-2.38.83c-.53-1.23-1.72-2.04-3.15-2.04-1.99,0-3.49,1.54-3.49,3.6s1.49,3.62,3.48,3.62c1.44,0,2.64-.81,3.17-2.06l2.38.83c-.91,2.15-3.02,3.55-5.59,3.55-3.44,0-6.05-2.6-6.05-5.94Z"/>
    <path class="cls-8" d="M159.49,246.93h-3.02l-4.42-5.61v5.61h-2.52v-11.38h2.52v5.43l4.32-5.43h2.94l-4.55,5.55,4.72,5.83Z"/>
    <path class="cls-8" d="M171.27,246.93l-.58-1.85h-4.71l-.59,1.85h-2.72l4-11.38h3.36l4,11.38h-2.78ZM166.68,242.89h3.33l-1.62-5.2h-.06l-1.65,5.2Z"/>
    <path class="cls-8" d="M175.19,246.93v-11.38h2.47l4.75,7.21h.06c-.06-.97-.06-1.77-.06-2.72v-4.49h2.46v11.38h-2.47l-4.75-7.18h-.06c.07.96.07,1.77.07,2.72v4.46h-2.47Z"/>
    <path class="cls-8" d="M191.02,235.55c3.56,0,6.1,2.43,6.1,5.68s-2.55,5.7-6.11,5.7h-4.07v-11.38h4.09ZM190.99,244.72c2.06,0,3.5-1.47,3.5-3.49s-1.43-3.48-3.48-3.48h-1.56v6.97h1.54Z"/>
    <path class="cls-8" d="M207,240.56h6.16v6.37h-1.4l-.35-1.91c-.81,1.3-2.35,2.15-4.25,2.15-3.28,0-5.8-2.55-5.8-5.94s2.64-5.92,6.12-5.92c2.53,0,4.52,1.27,5.43,3.27l-2.41.85c-.54-1.11-1.68-1.84-3.06-1.84-2.09,0-3.5,1.62-3.5,3.68s1.46,3.77,3.49,3.77c1.71,0,2.97-.99,3.4-2.48h-3.83v-2.01Z"/>
    <path class="cls-8" d="M214.62,241.23c0-3.36,2.65-5.92,6.1-5.92s6.05,2.56,6.05,5.92-2.63,5.94-6.09,5.94-6.06-2.58-6.06-5.94ZM224.17,241.23c0-1.97-1.52-3.52-3.47-3.52s-3.48,1.54-3.48,3.52,1.52,3.54,3.48,3.54,3.47-1.54,3.47-3.54Z"/>
  </g>
</svg>