<?xml version="1.0" encoding="UTF-8"?>
<svg id="Layer_1" data-name="Layer 1" xmlns="http://www.w3.org/2000/svg" viewBox="0 0 292.98 107.59">
  <defs>
    <style>
      .cls-1 {
        fill: #fff;
      }

      .cls-2 {
        fill: #010101;
      }

      .cls-3 {
        fill: #ffc225;
      }
    </style>
  </defs>
  <rect class="cls-2" x="-6.62" y="-1.86" width="304.17" height="112.34"/>
  <g>
    <path class="cls-1" d="M43.32,59.24v-20.09h-5.53v24.97h17.28v-4.88h-11.75Z"/>
    <path class="cls-1" d="M65.55,44.62c-5.81,0-10.43,4.25-10.43,10.06s4.56,9.97,10.35,9.97,10.42-4.26,10.42-10.04-4.57-9.99-10.34-9.99ZM65.51,59.81c-2.84,0-4.99-2.18-4.99-5.17s2.15-5.16,4.99-5.16,4.99,2.18,4.99,5.16-2.21,5.17-4.99,5.17Z"/>
    <path class="cls-1" d="M86.96,59.81c-2.7,0-4.78-2.18-4.78-5.17s2.08-5.16,4.78-5.16c2.14,0,3.8,1.15,4.54,2.93l5.09-1.66c-1.42-3.69-4.96-6.13-9.57-6.13-5.81,0-10.35,4.21-10.35,10.02s4.45,10.01,10.22,10.01c4.67,0,8.24-2.43,9.7-6.13l-5.09-1.67c-.74,1.8-2.4,2.95-4.54,2.95Z"/>
    <path class="cls-1" d="M109.78,54.36l7.92-9.19h-6.36l-7.41,9.1v-17.46l-5.49.49v26.83h5.49v-9.35l7.36,9.35h6.51l-8.02-9.76Z"/>
  </g>
  <g>
    <path class="cls-1" d="M144.31,55.64c0,.87-.44,1.63-1.11,2.09v4.17c0,.79-.64,1.43-1.43,1.43h0c-.79,0-1.43-.64-1.43-1.43v-4.16c-.67-.46-1.11-1.23-1.11-2.1,0-1.4,1.14-2.54,2.54-2.54s2.54,1.14,2.54,2.54Z"/>
    <path class="cls-3" d="M154.64,64.29h-5.53l-5.72-15.4c-.48-1.3-2.32-1.32-2.83-.03l-6.13,15.48h-5.53l8.09-20.44c.82-2.07,2.82-3.42,5.04-3.42h0c2.26,0,4.29,1.41,5.08,3.53l7.54,20.28Z"/>
  </g>
  <g>
    <path class="cls-1" d="M178.5,44.96c-2.69,0-4.96,1.11-6.48,3.05l-.53-2.55h-4.67v26.94l5.49-.49v-9.68c1.51,1.72,3.65,2.69,6.15,2.69,5.05,0,9.29-3.91,9.29-9.97s-4.09-9.97-9.24-9.97ZM177.37,60.1c-2.8,0-5.07-2.18-5.07-5.17s2.27-5.16,5.07-5.16,4.92,2.15,4.92,5.16-2.18,5.17-4.92,5.17Z"/>
    <path class="cls-1" d="M198.92,44.91c-5.8,0-10.42,4.25-10.42,10.06s4.56,9.97,10.35,9.97,10.42-4.26,10.42-10.04-4.58-9.99-10.35-9.99ZM198.89,60.1c-2.84,0-4.99-2.18-4.99-5.17s2.15-5.16,4.99-5.16,4.99,2.18,4.99,5.16-2.21,5.17-4.99,5.17Z"/>
    <path class="cls-1" d="M210.37,45.46v18.95h5.49v-18.95h-5.49ZM213.11,36.7c-1.97,0-3.27,1.27-3.27,3.12s1.31,3.14,3.27,3.14,3.26-1.27,3.26-3.14-1.31-3.12-3.26-3.12Z"/>
    <path class="cls-1" d="M228.17,44.96c-2.51,0-4.65,1.06-6,2.74l-.53-2.25h-4.67v18.95h5.49v-10.54c0-2.57,1.51-3.99,3.63-3.99s3.44,1.25,3.44,3.73v10.8h5.47v-12.24c0-4.3-2.88-7.21-6.83-7.21Z"/>
    <path class="cls-1" d="M249.3,60.11c-.6.17-1.4.28-2.27.28-2.06,0-2.7-1.06-2.7-3.27v-6.96h5.07v-4.5h-5.07v-5.26h-3.29l-2.1,5.26h-3.48v4.5h3.39v7.96c0,4.34,2.5,6.89,7.05,6.89,1.36,0,2.76-.23,4.07-.55l-.66-4.35Z"/>
  </g>
  <g>
    <path class="cls-3" d="M179.35,69.62c1.62,0,2.77,1.1,2.77,2.58s-1.16,2.59-2.77,2.59h-1.85v-5.16h1.85ZM179.34,73.78c.94,0,1.59-.67,1.59-1.58s-.65-1.58-1.58-1.58h-.71v3.16h.7Z"/>
    <path class="cls-3" d="M185.78,74.78l-.92-1.64h-.9v1.64h-1.14v-5.16h2.3c1.09,0,1.9.72,1.9,1.76,0,.75-.43,1.33-1.06,1.6l1.08,1.8h-1.26ZM183.96,70.58v1.63h1.05c.52,0,.86-.33.86-.82s-.33-.81-.86-.81h-1.05Z"/>
    <path class="cls-3" d="M187.44,72.2c0-1.53,1.2-2.69,2.77-2.69s2.75,1.16,2.75,2.69-1.19,2.7-2.76,2.7-2.75-1.17-2.75-2.7ZM191.77,72.2c0-.9-.69-1.6-1.57-1.6s-1.58.7-1.58,1.6.69,1.6,1.58,1.6,1.57-.7,1.57-1.6Z"/>
    <path class="cls-3" d="M195.95,69.62c1.09,0,1.9.72,1.9,1.76s-.81,1.77-1.9,1.77h-1.15v1.64h-1.14v-5.16h2.3ZM195.86,72.19c.52,0,.84-.33.84-.81s-.32-.81-.84-.81h-1.06v1.62h1.06Z"/>
    <path class="cls-3" d="M199.9,74.78v-5.16h1.14v4.16h2.43v1.01h-3.57Z"/>
    <path class="cls-3" d="M203.77,72.2c0-1.53,1.2-2.69,2.77-2.69s2.75,1.16,2.75,2.69-1.19,2.7-2.76,2.7-2.75-1.17-2.75-2.7ZM208.1,72.2c0-.9-.69-1.6-1.57-1.6s-1.58.7-1.58,1.6.69,1.6,1.58,1.6,1.57-.7,1.57-1.6Z"/>
    <path class="cls-3" d="M209.75,72.2c0-1.52,1.19-2.69,2.77-2.69,1.16,0,2.12.63,2.51,1.6l-1.08.38c-.24-.56-.78-.92-1.43-.92-.9,0-1.58.7-1.58,1.64s.68,1.64,1.58,1.64c.65,0,1.2-.37,1.44-.94l1.08.38c-.41.97-1.37,1.61-2.54,1.61-1.56,0-2.74-1.18-2.74-2.7Z"/>
    <path class="cls-3" d="M220.21,74.78h-1.37l-2-2.54v2.54h-1.14v-5.16h1.14v2.47l1.96-2.47h1.33l-2.06,2.52,2.14,2.64Z"/>
    <path class="cls-3" d="M225.55,74.78l-.26-.84h-2.14l-.27.84h-1.23l1.82-5.16h1.53l1.82,5.16h-1.26ZM223.47,72.95h1.51l-.74-2.36h-.03l-.75,2.36Z"/>
    <path class="cls-3" d="M227.33,74.78v-5.16h1.12l2.16,3.27h.03c-.03-.44-.03-.8-.03-1.23v-2.04h1.12v5.16h-1.12l-2.16-3.26h-.03c.03.43.03.8.03,1.23v2.02h-1.12Z"/>
    <path class="cls-3" d="M234.51,69.62c1.62,0,2.77,1.1,2.77,2.58s-1.16,2.59-2.77,2.59h-1.85v-5.16h1.85ZM234.5,73.78c.94,0,1.59-.67,1.59-1.58s-.65-1.58-1.58-1.58h-.71v3.16h.7Z"/>
    <path class="cls-3" d="M241.76,71.89h2.79v2.89h-.63l-.16-.86c-.37.59-1.06.97-1.93.97-1.49,0-2.63-1.16-2.63-2.7s1.2-2.69,2.78-2.69c1.15,0,2.05.58,2.47,1.48l-1.09.39c-.25-.5-.76-.83-1.39-.83-.95,0-1.59.74-1.59,1.67s.66,1.71,1.58,1.71c.77,0,1.35-.45,1.54-1.12h-1.74v-.91Z"/>
    <path class="cls-3" d="M245.22,72.2c0-1.53,1.2-2.69,2.77-2.69s2.75,1.16,2.75,2.69-1.19,2.7-2.76,2.7-2.75-1.17-2.75-2.7ZM249.55,72.2c0-.9-.69-1.6-1.57-1.6s-1.58.7-1.58,1.6.69,1.6,1.58,1.6,1.57-.7,1.57-1.6Z"/>
  </g>
  <path class="cls-3" d="M163.77,32.7h-43.58v.06h0v40.56h5.41v-.04h38.17v-35.17h0v-5.41ZM158.35,67.87h-32.76v-29.75h32.76v29.75Z"/>
</svg>